HIERARCHY
ROOT hip
{
  OFFSET 0 0 0
  CHANNELS 6 Xposition Yposition Zposition Zrotation Yrotation Xrotation
  JOINT abdomen
  {
    OFFSET 0 20.6881 -0.73152
    CHANNELS 3 Zrotation Xrotation Yrotation
    JOINT chest
    {
      OFFSET 0 11.7043 -0.48768
      CHANNELS 3 Zrotation Xrotation Yrotation
      JOINT neck
      {
        OFFSET 0 22.1894 -2.19456
        CHANNELS 3 Zrotation Xrotation Yrotation
        JOINT head
        {
          OFFSET -0.24384 7.07133 1.2192
          CHANNELS 3 Zrotation Xrotation Yrotation
          JOINT leftEye
          {
            OFFSET 4.14528 8.04674 8.04672
            CHANNELS 3 Zrotation Xrotation Yrotation
            End Site
            {
              OFFSET 1 0 0
            }
          }
          JOINT rightEye
          {
            OFFSET -3.6576 8.04674 8.04672
            CHANNELS 3 Zrotation Xrotation Yrotation
            End Site
            {
              OFFSET 1 0 0
            }
          }
        }
      }
      JOINT rCollar
      {
        OFFSET -2.68224 19.2634 -4.8768
        CHANNELS 3 Zrotation Xrotation Yrotation
        JOINT rShldr
        {
          OFFSET -8.77824 -1.95073 1.46304
          CHANNELS 3 Zrotation Xrotation Yrotation
          JOINT rForeArm
          {
            OFFSET -28.1742 -1.7115 0.48768
            CHANNELS 3 Zrotation Xrotation Yrotation
            JOINT rHand
            {
              OFFSET -22.5879 0.773209 7.07136
              CHANNELS 3 Zrotation Xrotation Yrotation
              JOINT rThumb1
              {
                OFFSET -1.2192 -0.487915 3.41376
                CHANNELS 3 Zrotation Xrotation Yrotation
                JOINT rThumb2
                {
                  OFFSET -3.37035 -0.52449 3.41376
                  CHANNELS 3 Zrotation Xrotation Yrotation
                  End Site
                  {
                    OFFSET -1.78271 -1.18214 1.43049
                  }
                }
              }
              JOINT rIndex1
              {
                OFFSET -7.75947 0.938293 5.60832
                CHANNELS 3 Zrotation Xrotation Yrotation
                JOINT rIndex2
                {
                  OFFSET -2.54057 -0.884171 1.56538
                  CHANNELS 3 Zrotation Xrotation Yrotation
                  End Site
                  {
                    OFFSET -1.62519 -0.234802 1.16502
                  }
                }
              }
              JOINT rMid1
              {
                OFFSET -8.24714 1.18213 3.41376
                CHANNELS 3 Zrotation Xrotation Yrotation
                JOINT rMid2
                {
                  OFFSET -3.10165 -0.590103 1.0647
                  CHANNELS 3 Zrotation Xrotation Yrotation
                  End Site
                  {
                    OFFSET -2.48547 -0.328903 0.83742
                  }
                }
              }
              JOINT rRing1
              {
                OFFSET -8.82822 0.546677 1.51678
                CHANNELS 3 Zrotation Xrotation Yrotation
                JOINT rRing2
                {
                  OFFSET -2.60934 -0.819778 -0.0198488
                  CHANNELS 3 Zrotation Xrotation Yrotation
                  End Site
                  {
                    OFFSET -2.33842 -0.294052 0.168128
                  }
                }
              }
              JOINT rPinky1
              {
                OFFSET -8.27202 -0.0477905 -0.4584
                CHANNELS 3 Zrotation Xrotation Yrotation
                JOINT rPinky2
                {
                  OFFSET -1.82734 -0.647385 -0.700984
                  CHANNELS 3 Zrotation Xrotation Yrotation
                  End Site
                  {
                    OFFSET -1.69225 -0.51767 -0.607171
                  }
                }
              }
            }
          }
        }
      }
      JOINT lCollar
      {
        OFFSET 2.68224 19.2634 -4.8768
        CHANNELS 3 Zrotation Xrotation Yrotation
        JOINT lShldr
        {
          OFFSET 8.77824 -1.95073 1.46304
          CHANNELS 3 Zrotation Xrotation Yrotation
          JOINT lForeArm
          {
            OFFSET 28.1742 -1.7115 0.48768
            CHANNELS 3 Zrotation Xrotation Yrotation
            JOINT lHand
            {
              OFFSET 22.5879 0.773209 7.07136
              CHANNELS 3 Zrotation Xrotation Yrotation
              JOINT lThumb1
              {
                OFFSET 1.2192 -0.487915 3.41376
                CHANNELS 3 Zrotation Xrotation Yrotation
                JOINT lThumb2
                {
                  OFFSET 3.37035 -0.52449 3.41376
                  CHANNELS 3 Zrotation Xrotation Yrotation
                  End Site
                  {
                    OFFSET 1.78271 -1.18214 1.43049
                  }
                }
              }
              JOINT lIndex1
              {
                OFFSET 7.75947 0.938293 5.60832
                CHANNELS 3 Zrotation Xrotation Yrotation
                JOINT lIndex2
                {
                  OFFSET 2.54057 -0.884171 1.56538
                  CHANNELS 3 Zrotation Xrotation Yrotation
                  End Site
                  {
                    OFFSET 1.62519 -0.234802 1.16502
                  }
                }
              }
              JOINT lMid1
              {
                OFFSET 8.24714 1.18213 3.41376
                CHANNELS 3 Zrotation Xrotation Yrotation
                JOINT lMid2
                {
                  OFFSET 3.10165 -0.590103 1.0647
                  CHANNELS 3 Zrotation Xrotation Yrotation
                  End Site
                  {
                    OFFSET 2.48547 -0.328903 0.83742
                  }
                }
              }
              JOINT lRing1
              {
                OFFSET 8.82822 0.546677 1.51678
                CHANNELS 3 Zrotation Xrotation Yrotation
                JOINT lRing2
                {
                  OFFSET 2.60934 -0.819778 -0.0198488
                  CHANNELS 3 Zrotation Xrotation Yrotation
                  End Site
                  {
                    OFFSET 2.33842 -0.294052 0.168128
                  }
                }
              }
              JOINT lPinky1
              {
                OFFSET 8.27202 -0.0477905 -0.4584
                CHANNELS 3 Zrotation Xrotation Yrotation
                JOINT lPinky2
                {
                  OFFSET 1.82734 -0.647385 -0.700984
                  CHANNELS 3 Zrotation Xrotation Yrotation
                  End Site
                  {
                    OFFSET 1.69225 -0.51767 -0.607171
                  }
                }
              }
            }
          }
        }
      }
    }
  }
  JOINT rButtock
  {
    OFFSET -8.77824 4.35084 1.2192
    CHANNELS 3 Zrotation Xrotation Yrotation
    JOINT rThigh
    {
      OFFSET 0 -1.70687 -2.19456
      CHANNELS 3 Zrotation Xrotation Yrotation
      JOINT rShin
      {
        OFFSET 0 -36.8199 0.73152
        CHANNELS 3 Zrotation Xrotation Yrotation
        JOINT rFoot
        {
          OFFSET 0.73152 -45.1104 -5.12064
          CHANNELS 3 Zrotation Xrotation Yrotation
          End Site
          {
            OFFSET -1.1221 -3.69964 12.103
          }
        }
      }
    }
  }
  JOINT lButtock
  {
    OFFSET 8.77824 4.35084 1.2192
    CHANNELS 3 Zrotation Xrotation Yrotation
    JOINT lThigh
    {
      OFFSET 0 -1.70687 -2.19456
      CHANNELS 3 Zrotation Xrotation Yrotation
      JOINT lShin
      {
        OFFSET 0 -36.8199 0.73152
        CHANNELS 3 Zrotation Xrotation Yrotation
        JOINT lFoot
        {
          OFFSET -0.73152 -45.1104 -5.12064
          CHANNELS 3 Zrotation Xrotation Yrotation
          End Site
          {
            OFFSET 1.1221 -3.69964 12.103
          }
        }
      }
    }
  }
}
MOTION
Frames:	7
Frame Time:	0.00833333
-116.503 84.8928 -0.512075 0.0 0.0 0.0 -0.180148 -0.000587416 -0.00513799 -0.0496822 -0.000860798 -0.00860669 3.6945e-15 -2.38542e-15 3.10601e-18 1.11133e-14 -6.36111e-15 6.21202e-18 -0.0 0.0 0.0 -0.0 0.0 0.0 1.83749e-15 -1.16475e-18 1.98785e-16 4.09421e-14 -5.28022e-16 1.19271e-15 6.67966e-13 -2.03556e-13 -1.90833e-14 7.63052e-12 1.82956e-13 1.59028e-14 1.80001e-11 -4.04033e-14 2.22639e-14 3.10756e-11 -6.99722e-14 3.02153e-14 1.80079e-11 -3.65764e-14 9.54166e-15 7.73091 5.47488 0.417314 1.80018e-11 -3.95581e-14 1.59028e-14 2.90554 0.965183 0.102902 1.80045e-11 -3.99557e-14 2.14687e-14 10.2786 0.731801 0.0259123 1.7992e-11 -4.09496e-14 3.49861e-14 2.22167 -0.733487 -0.20892 1.84015e-15 -7.76503e-19 -1.98785e-16 3.58123e-14 -4.9075e-16 -5.96354e-16 6.6409e-13 1.962e-13 1.59028e-14 7.63418e-12 -2.14116e-13 9.54166e-15 1.80016e-11 -3.34823e-14 2.22639e-14 3.11007e-11 -5.40694e-14 5.1684e-14 1.79928e-11 -2.90226e-14 3.49861e-14 -7.73091 5.47488 -0.417314 1.80003e-11 -3.3197e-14 2.22639e-14 -2.90554 0.965183 -0.102902 1.79911e-11 -3.27001e-14 2.54444e-14 -10.2786 0.731801 -0.0259123 1.80023e-11 -3.37934e-14 1.59028e-14 -2.22167 -0.733487 0.20892 -2.03217e-16 0.0 -3.88251e-19 0.37356 -2.84391 -0.0347137 -0.00664977 -0.401534 -0.0584289 -0.50971 3.24465 0.124534 2.03217e-16 0.0 3.88251e-19 -0.647779 -3.54407 0.0518675 0.00461062 0.866742 0.0396101 0.511847 2.67657 -0.113179
-119.064 83.1648 -5.1297 174.858 -81.5333 -161.861 -1.15502 -5.06 1.08807 0.260027 0.951436 0.307522 0.409001 5.50658 1.77751 -1.00943 -1.81929 3.11897 -0.0 0.0 0.0 -0.0 0.0 0.0 -6.95592e-15 -4.29614e-13 -3.286e-14 24.0127 7.37641 0.262783 -2.60647 -0.979906 4.26611 0.0358483 4.21035 0.586012 6.17045e-10 7.24671e-11 4.99735e-11 1.066e-09 1.2632e-10 7.83439e-11 6.17051e-10 7.24712e-11 4.99635e-11 7.73091 5.47488 0.417314 6.17046e-10 7.24686e-11 4.99708e-11 2.90554 0.965183 0.102902 6.17049e-10 7.24685e-11 4.9976e-11 10.2786 0.731801 0.0259123 6.17038e-10 7.24685e-11 4.99863e-11 2.22167 -0.733487 -0.20892 -6.9649e-15 -4.29613e-13 -3.3277e-14 -22.9415 4.27944 -0.67433 2.17159 -0.768781 -3.59174 -0.338177 12.9749 -1.65979 -2.46836e-10 5.33295e-11 4.52664e-10 -4.0797e-10 8.12273e-11 7.90067e-10 -2.46842e-10 5.33324e-11 4.52674e-10 -7.73091 5.47488 -0.417314 -2.46836e-10 5.33292e-11 4.52664e-10 -2.90554 0.965183 -0.102902 -2.46846e-10 5.33293e-11 4.52666e-10 -10.2786 0.731801 -0.0259123 -2.46832e-10 5.3329e-11 4.52657e-10 -2.22167 -0.733487 0.20892 -2.03217e-16 0.0 -3.88251e-19 -0.636043 -7.8537 4.03664 -0.0207666 4.97375 -0.0202388 -0.556617 4.29095 -7.95567 2.03217e-16 0.0 3.88251e-19 0.370295 -8.99228 -2.97446 -0.00877395 6.90553 -0.0809365 0.83582 -0.758609 3.85053
-119.013 83.1651 -5.08781 173.572 -81.4888 -160.558 -1.97586 -10.4105 2.27473 0.576776 1.95689 0.642705 0.463553 11.314 3.71796 -1.86568 -3.71866 6.43765 -0.0 0.0 0.0 -0.0 0.0 0.0 -1.55108e-14 -8.35782e-13 -6.42447e-14 49.3203 15.1666 0.542951 -5.20758 -1.99976 8.78642 -0.0208316 8.62887 1.21181 1.33142e-09 1.56759e-10 6.71357e-11 2.29965e-09 2.73213e-10 9.84251e-11 1.33143e-09 1.56764e-10 6.71286e-11 7.73091 5.47488 0.417314 1.33142e-09 1.56762e-10 6.71369e-11 2.90554 0.965183 0.102902 1.33142e-09 1.56762e-10 6.71418e-11 10.2786 0.731801 0.0259123 1.33141e-09 1.56763e-10 6.71487e-11 2.22167 -0.733487 -0.20892 -1.55317e-14 -8.35781e-13 -6.46858e-14 -47.0817 8.88184 -1.39091 4.37159 -1.57563 -7.40568 0.20899 26.5832 -3.71407 -6.12914e-10 1.25739e-10 9.40388e-10 -1.01998e-09 1.94922e-10 1.6446e-09 -6.12919e-10 1.2574e-10 9.40395e-10 -7.73091 5.47488 -0.417314 -6.12914e-10 1.25738e-10 9.40388e-10 -2.90554 0.965183 -0.102902 -6.12924e-10 1.25738e-10 9.40389e-10 -10.2786 0.731801 -0.0259123 -6.12908e-10 1.25739e-10 9.40382e-10 -2.22167 -0.733487 0.20892 -2.03217e-16 0.0 -3.88251e-19 -0.91852 -13.0447 8.48693 -0.0437616 10.6608 0.0200438 -0.279405 5.29038 -16.5152 2.03217e-16 0.0 3.88251e-19 0.793164 -14.6808 -6.31397 0.0053627 13.2847 -0.21273 1.6946 -4.34217 8.07097
-118.923 83.1585 -5.10504 174.322 -81.5994 -161.154 -2.50816 -15.1564 3.37945 0.847888 2.85569 0.940821 0.166458 16.4547 5.5353 -2.43479 -5.39309 9.39416 -0.0 0.0 0.0 -0.0 0.0 0.0 -2.45427e-14 -1.28884e-12 -9.89777e-14 71.8213 22.1273 0.84399 -7.38521 -2.87461 12.8129 -0.156237 12.6257 1.79675 1.81514e-09 2.17482e-10 1.49876e-10 3.13585e-09 3.79101e-10 2.34971e-10 1.81514e-09 2.17487e-10 1.49871e-10 7.73091 5.47488 0.417314 1.81513e-09 2.17485e-10 1.4988e-10 2.90554 0.965183 0.102902 1.81514e-09 2.17485e-10 1.49885e-10 10.2786 0.731801 0.0259123 1.81513e-09 2.17487e-10 1.49889e-10 2.22167 -0.733487 -0.20892 -2.4575e-14 -1.28884e-12 -9.94335e-14 -68.5159 12.8311 -2.06904 6.22732 -2.27012 -10.7828 1.77732 38.7747 -6.22868 -7.7651e-10 1.60056e-10 1.35795e-09 -1.28611e-09 2.4379e-10 2.3701e-09 -7.76513e-10 1.60055e-10 1.35795e-09 -7.73091 5.47488 -0.417314 -7.7651e-10 1.60054e-10 1.35795e-09 -2.90554 0.965183 -0.102902 -7.7652e-10 1.60053e-10 1.35795e-09 -10.2786 0.731801 -0.0259123 -7.76502e-10 1.60055e-10 1.35794e-09 -2.22167 -0.733487 0.20892 -2.03217e-16 0.0 -3.88251e-19 -0.446535 -17.522 12.6621 -0.0709531 15.7243 0.0585585 0.199888 5.94114 -24.1865 2.03217e-16 0.0 3.88251e-19 0.59296 -19.6737 -9.47488 0.0442329 18.9828 -0.338678 2.90817 -7.47249 11.879
-118.836 83.1551 -5.12949 174.66 -81.6622 -161.35 -2.7501 -18.4125 4.17817 1.02724 3.48816 1.14528 -0.241441 19.9916 6.84985 -2.70476 -6.56747 11.4101 -0.0 0.0 0.0 -0.0 0.0 0.0 -3.47672e-14 -1.85912e-12 -1.42081e-13 87.4455 27.0156 1.15113 -8.8114 -3.4497 15.5906 -0.306997 15.5731 2.24477 1.7222e-09 2.1928e-10 3.96561e-10 2.97844e-09 3.82478e-10 6.6268e-10 1.7222e-09 2.19285e-10 3.96558e-10 7.73091 5.47488 0.417314 1.7222e-09 2.19283e-10 3.96567e-10 2.90554 0.965183 0.102902 1.7222e-09 2.19283e-10 3.96571e-10 10.2786 0.731801 0.0259123 1.72219e-09 2.19286e-10 3.96574e-10 2.22167 -0.733487 -0.20892 -3.48097e-14 -1.85912e-12 -1.42529e-13 -83.4097 15.1543 -2.60445 7.42885 -2.71936 -13.0604 3.90041 47.5532 -8.83906 -4.339e-10 9.91379e-11 1.60009e-09 -6.87548e-10 1.3059e-10 2.77299e-09 -4.33902e-10 9.91367e-11 1.60009e-09 -7.73091 5.47488 -0.417314 -4.339e-10 9.9136e-11 1.60009e-09 -2.90554 0.965183 -0.102902 -4.33909e-10 9.91351e-11 1.60009e-09 -10.2786 0.731801 -0.0259123 -4.3389e-10 9.91367e-11 1.60008e-09 -2.22167 -0.733487 0.20892 -2.03217e-16 0.0 -3.88251e-19 0.329626 -20.5402 15.7157 -0.0935247 19.229 0.0900838 0.562708 6.11093 -29.5782 2.03217e-16 0.0 3.88251e-19 0.145742 -23.1274 -11.789 0.0876925 22.9786 -0.434279 4.00516 -9.62917 14.544
-118.764 83.165 -5.13771 174.417 -81.6479 -161.005 -2.79504 -19.6087 4.48184 1.09097 3.75208 1.22 -0.426529 21.3269 7.31684 -2.75203 -7.07488 12.0834 -0.0 0.0 0.0 -0.0 0.0 0.0 -5.0167e-14 -2.61294e-12 -2.02397e-13 93.5214 28.9782 1.42414 -9.3131 -3.64568 16.6019 -0.394338 17.0549 2.47575 5.35859e-10 1.1299e-10 1.01926e-09 9.37832e-10 1.97903e-10 1.7553e-09 5.35863e-10 1.12993e-10 1.01925e-09 7.73091 5.47488 0.417314 5.3586e-10 1.1299e-10 1.01926e-09 2.90554 0.965183 0.102902 5.35861e-10 1.12991e-10 1.01927e-09 10.2786 0.731801 0.0259123 5.35855e-10 1.12994e-10 1.01927e-09 2.22167 -0.733487 -0.20892 -5.02129e-14 -2.61294e-12 -2.02796e-13 -89.2505 15.2362 -2.91327 7.80192 -2.84861 -13.7912 5.29708 51.6724 -10.4362 9.33447e-10 -1.52146e-10 1.59148e-09 1.66512e-09 -3.06678e-10 2.70203e-09 9.33446e-10 -1.52147e-10 1.59148e-09 -7.73091 5.47488 -0.417314 9.33447e-10 -1.52148e-10 1.59148e-09 -2.90554 0.965183 -0.102902 9.33439e-10 -1.52149e-10 1.59148e-09 -10.2786 0.731801 -0.0259123 9.33456e-10 -1.52148e-10 1.59147e-09 -2.22167 -0.733487 0.20892 -2.03217e-16 0.0 -3.88251e-19 0.781908 -21.7458 16.9064 -0.10214 20.5467 0.110824 0.495567 5.77958 -31.7628 2.03217e-16 0.0 3.88251e-19 -0.0102948 -24.5713 -12.6005 0.109206 24.5954 -0.475674 4.49274 -10.5755 15.4903
-118.723 83.1726 -5.17339 174.891 -81.6479 -161.469 -2.74753 -19.3374 4.4103 1.07425 3.75263 1.20175 -0.365211 21.1027 7.13699 -2.68267 -7.11848 11.7908 -0.0 0.0 0.0 -0.0 0.0 0.0 -6.90964e-14 -3.49694e-12 -2.74745e-13 92.8083 28.8527 1.6551 -9.18321 -3.58278 16.3496 -0.412765 17.491 2.54285 -1.41785e-09 -6.9288e-11 1.90356e-09 -2.42448e-09 -1.18808e-10 3.31059e-09 -1.41785e-09 -6.92868e-11 1.90355e-09 7.73091 5.47488 0.417314 -1.41785e-09 -6.92904e-11 1.90356e-09 2.90554 0.965183 0.102902 -1.41785e-09 -6.92903e-11 1.90356e-09 10.2786 0.731801 0.0259123 -1.41786e-09 -6.92867e-11 1.90357e-09 2.22167 -0.733487 -0.20892 -6.91412e-14 -3.49694e-12 -2.75068e-13 -88.6542 13.7176 -3.0521 7.60072 -2.75531 -13.4162 5.53217 52.526 -10.7509 3.0177e-09 -5.3669e-10 1.404e-09 5.24485e-09 -9.70797e-10 2.29368e-09 3.0177e-09 -5.3669e-10 1.40401e-09 -7.73091 5.47488 -0.417314 3.0177e-09 -5.36692e-10 1.404e-09 -2.90554 0.965183 -0.102902 3.01769e-09 -5.36693e-10 1.404e-09 -10.2786 0.731801 -0.0259123 3.01771e-09 -5.36692e-10 1.40399e-09 -2.22167 -0.733487 0.20892 -2.03217e-16 0.0 -3.88251e-19 0.82446 -21.7233 16.6868 -0.0986168 20.3026 0.122947 0.0968877 5.14189 -31.6589 2.03217e-16 0.0 3.88251e-19 0.19906 -24.6202 -12.2609 0.107583 24.5127 -0.474494 4.43934 -10.691 15.1838
